<?xml version="1.0" encoding="utf-8"?>
<!-- Generator: Adobe Illustrator 26.0.3, SVG Export Plug-In . SVG Version: 6.00 Build 0)  -->
<svg version="1.1" id="Layer_1" xmlns="http://www.w3.org/2000/svg" xmlns:xlink="http://www.w3.org/1999/xlink" x="0px" y="0px"
	 viewBox="0 0 862.06 726.75" style="enable-background:new 0 0 862.06 726.75;" xml:space="preserve">
<style type="text/css">
	.st0{fill:#1CA2A5;}
	.st1{fill:#A4CE3C;}
	.st2{fill:#E67C28;}
	.st3{fill:#D41676;}
	.st4{fill:#FFFFFF;}
</style>
<g>
	<g>
		<g>
			<g>
				<path class="st0" d="M423.12,311.87c-9.56,29.45-15.24,60.27-18.58,88.04c-15.15-33.64-56.18-64.66-78.67-70.2
					c-28.59-7.04-30.3-13.16,26.39-26.03c69.63-15.84,5.02-104.8,5.02-104.8C388.49,202.39,411.05,258.86,423.12,311.87z"/>
				<circle class="st0" cx="336.78" cy="258.66" r="24.26"/>
				<path class="st0" d="M521.75,303.68c-69.63-15.82-5.04-104.79-5.04-104.79c-105.19,45.18-113.7,230-111.38,293.56h44.69
					c-1.24-42.03,4.63-142.67,98.11-162.74C576.92,323.52,578.43,316.56,521.75,303.68z"/>
				<circle class="st0" cx="535.41" cy="253.8" r="24.26"/>
				<path class="st0" d="M559.34,261.59c0,0,4.77-3.42,13.52,2.06c8.75,5.48,6.68,20.97-11.69,26.17
					c-18.38,5.2-19.09,15.07-19.09,15.07s-4.6-12.62,9.25-22.48c13.85-9.86,6.3-16.05,6.3-16.05"/>
				
					<ellipse transform="matrix(0.4477 -0.8942 0.8942 0.4477 71.0128 645.5356)" class="st0" cx="558.04" cy="265.29" rx="7.32" ry="3.32"/>
			</g>
			<path class="st1" d="M474.57,89.6c0,49.48-43.54,89.6-43.54,89.6s-43.54-40.11-43.54-89.6S431.03,0,431.03,0
				S474.57,40.11,474.57,89.6z"/>
			<path class="st2" d="M330.87,117.98c24.96,27.81,20.73,72.32,20.73,72.32s-44.71-0.58-69.67-28.38S261.2,89.6,261.2,89.6
				S305.91,90.17,330.87,117.98z"/>
			<path class="st3" d="M355.49,29.47c10.28,21.27-0.11,47.55-0.11,47.55s-27.05-8.2-37.32-29.47S318.17,0,318.17,0
				S345.22,8.2,355.49,29.47z"/>
			<path class="st0" d="M207.36,105.61c20.68,11.41,27.4,38.86,27.4,38.86s-26.81,8.95-47.49-2.47s-27.4-38.86-27.4-38.86
				S186.68,94.19,207.36,105.61z"/>
			<path class="st3" d="M144.51,244.9c21.95,0,39.75,19.32,39.75,19.32s-17.8,19.32-39.75,19.32s-39.75-19.32-39.75-19.32
				S122.55,244.9,144.51,244.9z"/>
			<path class="st0" d="M506.56,29.47c-10.28,21.27,0.11,47.55,0.11,47.55s27.05-8.2,37.32-29.47C554.27,26.28,543.89,0,543.89,0
				S516.84,8.2,506.56,29.47z"/>
			<path class="st3" d="M654.7,105.61c-20.68,11.41-27.4,38.86-27.4,38.86s26.81,8.95,47.49-2.47c20.68-11.41,27.4-38.86,27.4-38.86
				S675.38,94.19,654.7,105.61z"/>
			<path class="st0" d="M717.55,244.9c-21.95,0-39.75,19.32-39.75,19.32s17.8,19.32,39.75,19.32c21.95,0,39.75-19.32,39.75-19.32
				S739.5,244.9,717.55,244.9z"/>
			<path class="st2" d="M225.9,285.89c38.4,0.93,68.71,35.47,68.71,35.47s-31.95,33.04-70.35,32.11S155.56,318,155.56,318
				S187.5,284.96,225.9,285.89z"/>
			<path class="st1" d="M244.51,184.97c33.29,11.55,50.12,50.22,50.12,50.22s-37.16,19.93-70.45,8.38
				c-33.29-11.55-50.12-50.22-50.12-50.22S211.22,173.42,244.51,184.97z"/>
			<path class="st1" d="M627.97,188.42c-33.29,11.55-50.12,50.22-50.12,50.22s37.16,19.93,70.45,8.38
				c33.29-11.55,50.12-50.22,50.12-50.22S661.26,176.86,627.97,188.42z"/>
			<path class="st2" d="M646.56,285.89c-38.4,0.93-68.71,35.47-68.71,35.47s31.95,33.04,70.35,32.11S716.91,318,716.91,318
				S684.96,284.96,646.56,285.89z"/>
			<path class="st2" d="M543,122.65c-24.8,27.95-20.31,72.44-20.31,72.44s44.7-0.84,69.5-28.79s20.31-72.44,20.31-72.44
				S567.8,94.7,543,122.65z"/>
		</g>
		<path class="st0" d="M548.97,503.36c-39.79-13.14-79.68-16.21-119.65-16.6c-39.96,0.46-79.83,3.55-119.61,16.6H548.97z"/>
	</g>
	<g>
		<g>
			<path class="st0" d="M1.88,543.13c1.16-0.71,2.7-1.52,4.62-2.41c1.92-0.89,5.85-2.05,11.79-3.48c5.94-1.43,12.13-2.14,18.56-2.14
				c22.33,0,33.5,11.08,33.5,33.24c0,6.79-1.77,12.86-5.29,18.23c-3.53,5.36-8.38,9.69-14.54,13l23.85,15.14l-10.59,10.59
				l-7.24,7.37L53.34,636l-4.69-4.96c-3.13-3.22-7.02-7.26-11.66-12.13c-4.65-4.87-8.4-8.87-11.26-11.99
				c0,1.52,0.04,5.49,0.13,11.93c0.09,6.43,0.13,10.23,0.13,11.39H0c0-6.16,0.27-22.18,0.8-48.04S1.7,543.31,1.88,543.13z
				 M24.39,560.69l0.13,24.12c3.66-0.18,6.97-0.85,9.92-2.01c6.61-2.68,9.92-7.37,9.92-14.07c0-6.79-3.35-10.19-10.05-10.19
				C30.91,558.54,27.61,559.26,24.39,560.69z"/>
			<path class="st0" d="M109.22,632.38c-9.74,0-17.53-3.3-23.39-9.92c-5.85-6.61-8.78-15.01-8.78-25.19
				c0-9.83,3.17-18.16,9.51-24.99c6.34-6.83,14.03-10.25,23.05-10.25c8.93,0,16.57,3.42,22.92,10.25
				c6.34,6.83,9.51,15.17,9.51,24.99c0,0.87-0.09,2.26-0.28,4.18l-41.27,2.81c0,0.09,0.18,0.61,0.54,1.57
				c0.36,0.95,0.62,1.56,0.8,1.84c1.88,2.54,4.87,3.81,8.98,3.81c6.43,0,12.95-1.83,19.57-5.49l7.77,19.7
				C129.23,630.15,119.58,632.38,109.22,632.38z M110.16,581.19c-5.36,0-8.62,3.62-9.78,10.86l21.31-1.18
				C119.36,584.41,115.52,581.19,110.16,581.19z"/>
			<path class="st0" d="M148.75,599.55c0-9.2,2.9-17,8.71-23.38c5.81-6.39,12.82-9.58,21.04-9.58c6.7,0,12.73,2.32,18.09,6.97h0.94
				l0.27-5.76c0-1.34,0.04-2.1,0.13-2.28c-0.09,0,0.74-0.09,2.48-0.27c1.74-0.18,4.36-0.45,7.84-0.8l10.32-1.21l0.67,67.01h-24.26
				v-5.63h-1.07c-1.43,2.68-3.66,4.65-6.7,5.9c-3.04,1.25-5.94,1.88-8.71,1.88c-8.22,0-15.23-3.19-21.04-9.58
				C151.66,616.41,148.75,608.66,148.75,599.55z M170.86,600.08c0,3.31,1.03,6.12,3.08,8.44c2.05,2.32,4.6,3.48,7.64,3.48
				c3.13,0,5.76-1.16,7.91-3.48c2.14-2.32,3.22-5.14,3.22-8.44c0-3.57-1.07-6.57-3.22-8.98c-2.14-2.41-4.78-3.62-7.91-3.62
				c-3.04,0-5.58,1.21-7.64,3.62C171.89,593.52,170.86,596.51,170.86,600.08z"/>
			<path class="st0" d="M268.56,548.36l0.27-9.65c0.54,0,1.79-0.09,3.75-0.27c2.32-0.09,5.05-0.36,8.18-0.8l12.06-1.21l0.67,93.81
				h-24.26v-5.63h-1.07c-1.43,2.68-3.66,4.65-6.7,5.9c-3.04,1.25-5.94,1.88-8.71,1.88c-8.22,0-15.23-3.19-21.04-9.58
				c-5.81-6.39-8.71-14.14-8.71-23.25c0-9.2,2.9-17,8.71-23.38c5.81-6.39,12.82-9.58,21.04-9.58c5.54,0,10.54,1.56,15.01,4.69
				C268.11,562.43,268.38,554.79,268.56,548.36z M245.11,600.08c0,3.31,1.03,6.12,3.08,8.44c2.05,2.32,4.6,3.48,7.64,3.48
				c3.13,0,5.76-1.16,7.91-3.48c2.14-2.32,3.22-5.14,3.22-8.44c0-3.57-1.07-6.57-3.22-8.98c-2.14-2.41-4.78-3.62-7.91-3.62
				c-3.04,0-5.58,1.21-7.64,3.62C246.13,593.52,245.11,596.51,245.11,600.08z"/>
			<path class="st0" d="M330.6,605.85c2.14,0,3.8-0.31,4.96-0.94l1.07-38.73h0.67c0.36-0.09,0.96-0.2,1.81-0.33
				c0.85-0.13,1.76-0.25,2.75-0.34c0.98-0.09,2.1-0.22,3.35-0.4c1.25-0.18,2.46-0.31,3.62-0.4c6.07-0.62,10.19-1.12,12.33-1.47
				c0,29.66-0.09,48.43-0.27,56.29c-0.18,7.86-0.58,13.18-1.21,15.95c-3.57,16.26-13.76,24.39-30.56,24.39
				c-9.2,0-16.66-1.16-22.38-3.48c-2.5-0.98-4.42-2.14-5.76-3.48c0.09,0,0.51-1.68,1.27-5.03c0.76-3.35,1.54-6.75,2.35-10.19
				c0.8-3.44,1.25-5.21,1.34-5.29l1.61,0.94c1.07,0.62,3.15,1.34,6.23,2.14c3.08,0.8,6.77,1.21,11.06,1.21
				c7.68,0,11.53-5.76,11.53-17.29l-0.13-0.13c-4.11,2.95-9.78,4.42-17.02,4.42c-12.69,0-19.03-7.77-19.03-23.32l0.67-34.17
				l25.6-2.95l-1.34,34.98C325.11,603.3,326.94,605.85,330.6,605.85z"/>
			<path class="st0" d="M413.42,588.83l-11.52,0.54l-0.13-1.47c0-0.98-0.02-2.55-0.07-4.69c-0.05-2.14-0.07-3.93-0.07-5.36
				l-0.27-11.53l4.15,0.27l7.91,0.4v-13.67l25.73-2.55c-0.18,3.04-0.27,8.36-0.27,15.95c9.83-0.45,16.13-0.67,18.9-0.67l0.13,6.03
				c0.09,3.93,0.13,7.62,0.13,11.06c0,3.44,0,5.47,0,6.1c-2.68,0-4.74-0.04-6.16-0.13c-4.82-0.18-9.29-0.27-13.4-0.27v5.09
				c0,8.13,2.41,12.19,7.24,12.19c1.96,0,4-0.76,6.1-2.28c2.1-1.52,3.64-2.9,4.62-4.15c0.98-1.25,1.61-2.14,1.88-2.68l9.92,23.45
				c-7.95,7.95-18.09,11.93-30.42,11.93c-9.74,0-16.66-4.69-20.77-14.07c-0.45-0.98-0.85-2.01-1.21-3.08
				c-0.36-1.07-0.65-2.21-0.87-3.42c-0.22-1.21-0.43-2.3-0.6-3.28c-0.18-0.98-0.34-2.19-0.47-3.62c-0.13-1.43-0.22-2.52-0.27-3.28
				c-0.05-0.76-0.09-1.94-0.13-3.55c-0.05-1.61-0.07-2.68-0.07-3.22s0-1.61,0-3.22C413.42,590.03,413.42,589.1,413.42,588.83z"/>
			<path class="st0" d="M469.98,597.27c0-9.83,3.17-18.16,9.51-24.99c6.34-6.83,14.03-10.25,23.05-10.25
				c8.93,0,16.57,3.42,22.92,10.25c6.34,6.83,9.51,15.17,9.51,24.99c0,9.74-3.17,18.03-9.51,24.86
				c-6.35,6.83-13.98,10.25-22.92,10.25c-9.02,0-16.71-3.42-23.05-10.25C473.15,615.3,469.98,607.01,469.98,597.27z M491.42,597.81
				c0,3.57,1.12,6.61,3.35,9.11c2.23,2.5,5,3.75,8.31,3.75c3.39,0,6.25-1.25,8.58-3.75c2.32-2.5,3.48-5.54,3.48-9.11
				c0-3.75-1.16-6.92-3.48-9.51c-2.33-2.59-5.18-3.89-8.58-3.89c-3.31,0-6.08,1.3-8.31,3.89
				C492.54,590.88,491.42,594.05,491.42,597.81z"/>
			<path class="st0" d="M610.29,595.53c0.18-3.39,0.4-5.98,0.67-7.77l0.94-10.72l39.4-1.34l-0.94,44.63
				c-11.71,8.04-24.12,12.06-37.26,12.06c-11.17,0-20.15-4.11-26.94-12.33c-6.79-8.22-10.45-20.19-10.99-35.91
				c0.54-15.9,4.18-28.03,10.92-36.39c6.74-8.35,15.75-12.53,27-12.53c2.41,0,4.82,0.09,7.24,0.27c2.41,0.18,4.62,0.42,6.63,0.74
				c2.01,0.31,3.97,0.67,5.9,1.07c1.92,0.4,3.66,0.85,5.23,1.34c1.56,0.49,3.02,0.96,4.35,1.41c1.34,0.45,2.52,0.87,3.55,1.27
				c1.03,0.4,1.9,0.76,2.61,1.07c0.71,0.31,1.25,0.56,1.61,0.74l0.54,0.27l-1.21,6.7c-0.72,4.56-1.43,9.09-2.14,13.6
				c-0.72,4.51-0.98,6.72-0.8,6.63l-5.23-2.55c-13.22-5.45-23.68-6.7-31.36-3.75c-7.24,2.68-10.9,9.16-10.99,19.43v2.95
				c0,5.45,0.92,9.83,2.75,13.13c1.83,3.31,4.27,5.43,7.3,6.37c3.04,0.94,6.12,1.3,9.25,1.07c3.13-0.22,6.34-0.92,9.65-2.08
				c0-1.07,0.02-2.43,0.07-4.09c0.04-1.65,0.07-3.02,0.07-4.09l0.13-1.47c-0.18,0-1.47,0.02-3.89,0.07
				c-2.41,0.05-4.42,0.07-6.03,0.07C616.63,595.48,613.95,595.53,610.29,595.53z"/>
			<path class="st0" d="M660.54,575.69l0.4-10.19c0.54,0,1.79-0.09,3.75-0.27c2.32-0.09,5.05-0.36,8.17-0.8l12.06-1.21l0.27,14.61
				c3.66-4.73,8.4-8.76,14.21-12.06c2.95-1.7,5.49-2.95,7.64-3.75l0.8,14.74c0.36,9.92,0.67,14.88,0.94,14.88
				c-12.78,0.63-20.59,1.97-23.45,4.02l0.27,34.58H658l1.47-32.3c0.09-1.43,0.25-4.91,0.47-10.45
				C660.16,581.95,660.36,578.02,660.54,575.69z"/>
			<path class="st0" d="M712.4,597.27c0-9.83,3.17-18.16,9.51-24.99c6.34-6.83,14.03-10.25,23.05-10.25
				c8.93,0,16.57,3.42,22.92,10.25c6.34,6.83,9.51,15.17,9.51,24.99c0,9.74-3.17,18.03-9.51,24.86
				c-6.35,6.83-13.98,10.25-22.92,10.25c-9.02,0-16.71-3.42-23.05-10.25C715.57,615.3,712.4,607.01,712.4,597.27z M733.85,597.81
				c0,3.57,1.12,6.61,3.35,9.11c2.23,2.5,5,3.75,8.31,3.75c3.39,0,6.25-1.25,8.58-3.75c2.32-2.5,3.48-5.54,3.48-9.11
				c0-3.75-1.16-6.92-3.48-9.51c-2.33-2.59-5.18-3.89-8.58-3.89c-3.31,0-6.08,1.3-8.31,3.89
				C734.96,590.88,733.85,594.05,733.85,597.81z"/>
			<path class="st0" d="M814.38,630.24h-23.05c-0.18-1.25-2.19-11.75-6.03-31.49c-3.84-19.74-5.99-31.14-6.43-34.17l24.12-2.55
				c0.62,5.81,1.29,13.45,2.01,22.92l1.47,17.42c0.54-2.14,1.27-5.02,2.21-8.64c0.94-3.62,1.49-5.83,1.68-6.63
				c2.41-8.93,3.84-14.83,4.29-17.69l13.54-0.67l8.44,33.53l2.42-16.64c0.77-4.82,1.8-11.84,3.09-21.04l19.93-2.55l-12.96,68.21
				h-20.92c-0.18-0.45-1.56-4.69-4.15-12.73c-2.59-8.04-3.98-12.33-4.16-12.87L814.38,630.24z"/>
		</g>
	</g>
	<g>
		<g>
			<path class="st1" d="M180.85,683.57c2.43,1.46,4.52,3.45,6.27,5.96l-7.3,7.42c-0.65-1.14-1.8-2.28-3.47-3.44
				c-1.66-1.16-3.45-1.73-5.35-1.73c-0.97,0-1.73,0.09-2.25,0.27c-0.53,0.18-0.84,0.37-0.94,0.58c-0.1,0.2-0.19,0.51-0.27,0.91
				c-0.08,0.85,0.23,1.61,0.94,2.28s1.68,1.25,2.92,1.73c1.24,0.49,2.62,0.97,4.14,1.46c1.52,0.49,3.05,1.08,4.59,1.76
				c1.54,0.69,2.95,1.49,4.23,2.4c1.28,0.91,2.32,2.12,3.13,3.62c0.81,1.5,1.22,3.2,1.22,5.11c0,2.43-0.45,4.55-1.34,6.36
				c-0.89,1.8-2.11,3.19-3.65,4.17c-1.54,0.97-3.19,1.67-4.96,2.1c-1.76,0.43-3.64,0.62-5.63,0.58c-4.3-0.2-7.63-1.03-9.98-2.49
				c-2.88-1.74-5.29-4.24-7.24-7.48v0.06c-0.08-0.12-0.19-0.28-0.34-0.49c-0.14-0.2-0.25-0.39-0.33-0.55l9.12-4.74
				c0.45,0.61,1.01,1.25,1.7,1.92c0.69,0.67,1.7,1.35,3.04,2.04c1.34,0.69,2.68,1.03,4.02,1.03c2.43,0,3.69-0.59,3.77-1.76
				c0.08-0.97-0.51-1.86-1.76-2.68c-0.32-0.08-1.12-0.3-2.4-0.67c-1.28-0.36-2.16-0.63-2.65-0.79s-1.35-0.45-2.58-0.85
				c-1.24-0.41-2.14-0.75-2.71-1.03c-0.57-0.28-1.38-0.69-2.43-1.22c-1.05-0.53-1.84-1.03-2.34-1.52c-0.51-0.49-1.13-1.08-1.86-1.79
				s-1.26-1.44-1.58-2.19c-0.32-0.75-0.62-1.6-0.88-2.56c-0.27-0.95-0.4-1.96-0.4-3.01c0-2.39,0.44-4.49,1.31-6.29
				c0.87-1.8,2.06-3.19,3.56-4.17c1.5-0.97,3.1-1.69,4.81-2.16s3.53-0.7,5.47-0.7C174.91,681.01,178.38,681.86,180.85,683.57z"/>
			<path class="st1" d="M198.98,684.6c0.53-0.32,1.23-0.69,2.1-1.09c0.87-0.41,2.67-0.93,5.38-1.58c2.72-0.65,5.51-0.97,8.39-0.97
				c10.14,0,15.21,5.03,15.21,15.09c0,4.91-1.97,8.94-5.9,12.1c-3.93,3.16-8.72,4.74-14.35,4.74c0,0.12,0.02,1.85,0.06,5.2
				c0.04,3.35,0.06,5.36,0.06,6.05h-11.8c0-1.74,0.06-5.87,0.18-12.38c0.12-6.51,0.25-12.66,0.39-18.46
				C198.85,687.5,198.94,684.6,198.98,684.6z M209.2,691.96l0.06,10.95c1.66-0.08,3.16-0.38,4.5-0.91c3-1.22,4.5-3.35,4.5-6.39
				c0-3.08-1.52-4.62-4.56-4.62C212.16,690.99,210.66,691.31,209.2,691.96z"/>
			<path class="st1" d="M264.8,724.14h-26.52l0.67-20.26c0.04-0.77,0.11-2.9,0.21-6.39c0.1-3.49,0.19-6,0.27-7.54l0.18-6.33
				l19.95-1.64c2.35-0.2,4.3-0.34,5.84-0.43c-0.41,4.01-0.79,8.37-1.16,13.08l-13.69-0.85l0.06,8.03l8.52-1.16l-0.12,9.31
				l-8.33-0.18v5.29l14.72-2.19L264.8,724.14z"/>
			<path class="st1" d="M301.36,724.14h-26.52l0.67-20.26c0.04-0.77,0.11-2.9,0.21-6.39c0.1-3.49,0.19-6,0.27-7.54l0.18-6.33
				l19.95-1.64c2.35-0.2,4.3-0.34,5.84-0.43c-0.41,4.01-0.79,8.37-1.16,13.08l-13.69-0.85l0.06,8.03l8.52-1.16l-0.12,9.31
				l-8.33-0.18v5.29l14.72-2.19L301.36,724.14z"/>
			<path class="st1" d="M329.1,681.01c1.14,0,2.23,0.05,3.29,0.15c1.05,0.1,1.99,0.23,2.8,0.4c0.81,0.16,1.59,0.36,2.34,0.58
				c0.75,0.22,1.41,0.47,1.98,0.73c0.57,0.27,1.08,0.52,1.55,0.76c0.47,0.24,0.86,0.48,1.19,0.7c0.32,0.22,0.6,0.42,0.82,0.58
				c0.22,0.16,0.39,0.3,0.52,0.43l0.12,0.12l-0.49,3.04c-0.32,2.07-0.66,4.13-1,6.17c-0.34,2.05-0.5,3.05-0.46,3.01l-2.19-1.28
				c-5.52-2.68-9.81-3.36-12.89-2.07c-2.76,1.22-4.14,4.08-4.14,8.58v0.12c0,2.35,0.35,4.26,1.06,5.72c0.71,1.46,1.64,2.43,2.8,2.92
				c1.16,0.49,2.41,0.74,3.77,0.76c1.36,0.02,2.73-0.2,4.11-0.67c1.38-0.47,2.62-0.93,3.74-1.4c1.11-0.47,2.03-0.9,2.74-1.31
				c0.71-0.41,1.04-0.61,1-0.61l0.97,6.08l0.97,6.14l-0.12,0.18c-0.12,0.08-0.3,0.2-0.52,0.36c-0.22,0.16-0.5,0.36-0.82,0.58
				c-0.32,0.22-0.72,0.46-1.19,0.7c-0.47,0.24-0.98,0.5-1.55,0.76c-0.57,0.26-1.23,0.51-1.98,0.73c-0.75,0.22-1.53,0.42-2.34,0.58
				c-0.81,0.16-1.74,0.29-2.8,0.4c-1.05,0.1-2.15,0.15-3.29,0.15c-5.19,0-9.38-1.88-12.56-5.63c-3.18-3.75-4.9-9.18-5.14-16.27
				c0.24-7.22,1.94-12.72,5.08-16.51C319.62,682.91,323.83,681.01,329.1,681.01z"/>
			<path class="st1" d="M355.87,689.1l0.18-6.51c0.24,0,0.81-0.04,1.7-0.12c1.05-0.04,2.29-0.16,3.71-0.37l5.47-0.55l0.12,21.35
				l9.61-0.24c0.32-9.04,0.49-13.73,0.49-14.05l0.18-6.02c0.24,0,0.81-0.04,1.7-0.12c1.05-0.04,2.29-0.16,3.71-0.37l5.47-0.55
				l0.3,42.58H376c0-1.3,0.02-2.33,0.06-3.1c0.16-4.7,0.24-7.14,0.24-7.3l-9.19-0.49l0.12,10.89h-12.53l0.67-20.74
				c0.04-0.93,0.11-3.17,0.21-6.72C355.7,693.13,355.79,690.6,355.87,689.1z"/>
			<path class="st1" d="M421.57,682.05c0.04,0,5.07-0.1,15.08-0.3c10.02-0.2,15.04-0.28,15.09-0.24v1.89c0,0.37,0.01,1.02,0.03,1.98
				c0.02,0.95,0.03,1.69,0.03,2.22v6.02l-2.98,0.18c-0.69,0.08-1.84,0.15-3.47,0.21c-1.62,0.06-2.84,0.11-3.65,0.15l0.24,29.99
				h-12.53c0.08-4.42,0.18-7.79,0.3-10.1c0.24-7.58,0.47-13.99,0.67-19.22h-0.06c-0.77,0.04-1.9,0.09-3.38,0.15
				c-1.48,0.06-2.52,0.13-3.13,0.21l-2.68,0.18c-0.04,0-0.03-1.1,0.03-3.31c0.06-2.21,0.13-4.42,0.21-6.63
				C421.47,683.21,421.53,682.09,421.57,682.05z"/>
			<path class="st1" d="M463.91,689.1l0.18-6.51c0.24,0,0.81-0.04,1.7-0.12c1.05-0.04,2.29-0.16,3.71-0.37l5.47-0.55l0.12,21.35
				l9.61-0.24c0.32-9.04,0.49-13.73,0.49-14.05l0.18-6.02c0.24,0,0.81-0.04,1.7-0.12c1.05-0.04,2.29-0.16,3.71-0.37l5.47-0.55
				l0.3,42.58h-12.53c0-1.3,0.02-2.33,0.06-3.1c0.16-4.7,0.24-7.14,0.24-7.3l-9.19-0.49l0.12,10.89h-12.53l0.67-20.74
				c0.04-0.93,0.11-3.17,0.21-6.72C463.74,693.13,463.83,690.6,463.91,689.1z"/>
			<path class="st1" d="M534.05,724.14h-26.52l0.67-20.26c0.04-0.77,0.11-2.9,0.21-6.39c0.1-3.49,0.19-6,0.27-7.54l0.18-6.33
				l19.95-1.64c2.35-0.2,4.3-0.34,5.84-0.43c-0.41,4.01-0.79,8.37-1.16,13.08l-13.69-0.85l0.06,8.03l8.52-1.16l-0.12,9.31
				l-8.33-0.18v5.29l14.72-2.19L534.05,724.14z"/>
			<path class="st1" d="M544.94,684.6c0.53-0.32,1.23-0.69,2.1-1.09c0.87-0.41,2.66-0.93,5.35-1.58c2.7-0.65,5.5-0.97,8.42-0.97
				c10.14,0,15.21,5.03,15.21,15.09c0,3.08-0.8,5.84-2.4,8.27c-1.6,2.43-3.8,4.4-6.6,5.9l10.83,6.87l-4.81,4.8l-3.28,3.35
				l-1.46,1.52l-2.13-2.25c-1.42-1.46-3.18-3.29-5.29-5.5c-2.11-2.21-3.81-4.02-5.11-5.45c0,0.69,0.02,2.49,0.06,5.41
				c0.04,2.92,0.06,4.64,0.06,5.17h-11.8c0-2.8,0.12-10.07,0.36-21.81C544.7,690.59,544.86,684.68,544.94,684.6z M555.16,692.57
				l0.06,10.95c1.66-0.08,3.16-0.39,4.5-0.91c3-1.22,4.5-3.35,4.5-6.39c0-3.08-1.52-4.62-4.56-4.62
				C558.12,691.6,556.62,691.92,555.16,692.57z"/>
			<path class="st1" d="M610.83,681.08l0.55,2.31c0.36,1.58,0.84,3.62,1.43,6.11c0.59,2.49,1.24,5.23,1.95,8.21
				c0.71,2.98,1.42,5.97,2.13,8.97c0.71,3,1.36,5.73,1.95,8.18c0.59,2.45,1.08,4.45,1.49,5.99l0.55,2.31l-1.89,0.3l-4.26,0.67
				l-6.2,0.97c-0.24-1.01-0.55-2.51-0.91-4.5c-0.57-2.96-0.83-4.46-0.79-4.5c0.04,0-0.3,0.03-1.03,0.09
				c-0.73,0.06-1.82,0.15-3.28,0.27l-4.38,0.37l-1.7,8.27l-11.57-2.37l5.63-19.98c3.75-13.32,5.67-19.98,5.75-19.98l0.85-0.12
				c0.53-0.04,1.22-0.11,2.07-0.21c0.85-0.1,1.8-0.22,2.86-0.37c1.05-0.14,2.1-0.27,3.13-0.39c1.03-0.12,1.98-0.23,2.83-0.34
				c0.85-0.1,1.54-0.18,2.07-0.24C610.57,681.05,610.83,681.04,610.83,681.08z M599.44,706.07l6.43,0.43l-1.22-5.96
				c-0.65-2.92-1.16-5.49-1.52-7.72H603l-1.97,7.47C600.5,702.44,599.97,704.37,599.44,706.07z"/>
			<path class="st1" d="M631.2,684.6c0.53-0.32,1.23-0.69,2.1-1.09c0.87-0.41,2.67-0.93,5.38-1.58c2.72-0.65,5.51-0.97,8.39-0.97
				c10.14,0,15.21,5.03,15.21,15.09c0,4.91-1.97,8.94-5.9,12.1c-3.93,3.16-8.72,4.74-14.35,4.74c0,0.12,0.02,1.85,0.06,5.2
				c0.04,3.35,0.06,5.36,0.06,6.05h-11.8c0-1.74,0.06-5.87,0.18-12.38c0.12-6.51,0.25-12.66,0.39-18.46
				C631.07,687.5,631.16,684.6,631.2,684.6z M641.42,691.96l0.06,10.95c1.66-0.08,3.16-0.38,4.5-0.91c3-1.22,4.5-3.35,4.5-6.39
				c0-3.08-1.52-4.62-4.56-4.62C644.38,690.99,642.88,691.31,641.42,691.96z"/>
			<path class="st1" d="M668.13,686.49c0-0.08,0.3-0.24,0.91-0.49c0.61-0.24,1.52-0.62,2.74-1.12s2.25-0.94,3.1-1.31l6.69-2.74
				l7.12,18.49l5.47-18.37l12.65,4.2l-12.47,22.2l0.73,16.79h-13.5c0-1.74,0.18-5.03,0.55-9.85c0.08-0.85,0.16-2.13,0.24-3.83
				c0.08-1.7,0.14-2.98,0.18-3.83l-7.24-9.98C670.52,690.2,668.13,686.81,668.13,686.49z"/>
		</g>
	</g>
</g>
</svg>
