<svg xml:space="preserve" style="max-height: 500px" viewBox="100.00696055684453 0 668.0464965197216 500" y="0px" x="0px" xmlns:xlink="http://www.w3.org/1999/xlink" xmlns="http://www.w3.org/2000/svg" id="Layer_1" version="1.1" width="668.0464965197216" height="500">
<style type="text/css">
	.st0{fill:#1CA2A5;}
	.st1{fill:#A4CE3C;}
	.st2{fill:#E67C28;}
	.st3{fill:#D41676;}
	.st4{fill:#FFFFFF;}
</style>
<g>
	<g>
		<g>
			<g>
				<path d="M423.12,311.87c-9.56,29.45-15.24,60.27-18.58,88.04c-15.15-33.64-56.18-64.66-78.67-70.2&#xA;&#9;&#9;&#9;&#9;&#9;c-28.59-7.04-30.3-13.16,26.39-26.03c69.63-15.84,5.02-104.8,5.02-104.8C388.49,202.39,411.05,258.86,423.12,311.87z" class="st0"/>
				<circle r="24.26" cy="258.66" cx="336.78" class="st0"/>
				<path d="M521.75,303.68c-69.63-15.82-5.04-104.79-5.04-104.79c-105.19,45.18-113.7,230-111.38,293.56h44.69&#xA;&#9;&#9;&#9;&#9;&#9;c-1.24-42.03,4.63-142.67,98.11-162.74C576.92,323.52,578.43,316.56,521.75,303.68z" class="st0"/>
				<circle r="24.26" cy="253.8" cx="535.41" class="st0"/>
				<path d="M559.34,261.59c0,0,4.77-3.42,13.52,2.06c8.75,5.48,6.68,20.97-11.69,26.17&#xA;&#9;&#9;&#9;&#9;&#9;c-18.38,5.2-19.09,15.07-19.09,15.07s-4.6-12.62,9.25-22.48c13.85-9.86,6.3-16.05,6.3-16.05" class="st0"/>
				
					<ellipse ry="3.32" rx="7.32" cy="265.29" cx="558.04" class="st0" transform="matrix(0.4477 -0.8942 0.8942 0.4477 71.0128 645.5356)"/>
			</g>
			<path d="M474.57,89.6c0,49.48-43.54,89.6-43.54,89.6s-43.54-40.11-43.54-89.6S431.03,0,431.03,0&#xA;&#9;&#9;&#9;&#9;S474.57,40.11,474.57,89.6z" class="st1"/>
			<path d="M330.87,117.98c24.96,27.81,20.73,72.32,20.73,72.32s-44.71-0.58-69.67-28.38S261.2,89.6,261.2,89.6&#xA;&#9;&#9;&#9;&#9;S305.91,90.17,330.87,117.98z" class="st2"/>
			<path d="M355.49,29.47c10.28,21.27-0.11,47.55-0.11,47.55s-27.05-8.2-37.32-29.47S318.17,0,318.17,0&#xA;&#9;&#9;&#9;&#9;S345.22,8.2,355.49,29.47z" class="st3"/>
			<path d="M207.36,105.61c20.68,11.41,27.4,38.86,27.4,38.86s-26.81,8.95-47.49-2.47s-27.4-38.86-27.4-38.86&#xA;&#9;&#9;&#9;&#9;S186.68,94.19,207.36,105.61z" class="st0"/>
			<path d="M144.51,244.9c21.95,0,39.75,19.32,39.75,19.32s-17.8,19.32-39.75,19.32s-39.75-19.32-39.75-19.32&#xA;&#9;&#9;&#9;&#9;S122.55,244.9,144.51,244.9z" class="st3"/>
			<path d="M506.56,29.47c-10.28,21.27,0.11,47.55,0.11,47.55s27.05-8.2,37.32-29.47C554.27,26.28,543.89,0,543.89,0&#xA;&#9;&#9;&#9;&#9;S516.84,8.2,506.56,29.47z" class="st0"/>
			<path d="M654.7,105.61c-20.68,11.41-27.4,38.86-27.4,38.86s26.81,8.95,47.49-2.47c20.68-11.41,27.4-38.86,27.4-38.86&#xA;&#9;&#9;&#9;&#9;S675.38,94.19,654.7,105.61z" class="st3"/>
			<path d="M717.55,244.9c-21.95,0-39.75,19.32-39.75,19.32s17.8,19.32,39.75,19.32c21.95,0,39.75-19.32,39.75-19.32&#xA;&#9;&#9;&#9;&#9;S739.5,244.9,717.55,244.9z" class="st0"/>
			<path d="M225.9,285.89c38.4,0.93,68.71,35.47,68.71,35.47s-31.95,33.04-70.35,32.11S155.56,318,155.56,318&#xA;&#9;&#9;&#9;&#9;S187.5,284.96,225.9,285.89z" class="st2"/>
			<path d="M244.51,184.97c33.29,11.55,50.12,50.22,50.12,50.22s-37.16,19.93-70.45,8.38&#xA;&#9;&#9;&#9;&#9;c-33.29-11.55-50.12-50.22-50.12-50.22S211.22,173.42,244.51,184.97z" class="st1"/>
			<path d="M627.97,188.42c-33.29,11.55-50.12,50.22-50.12,50.22s37.16,19.93,70.45,8.38&#xA;&#9;&#9;&#9;&#9;c33.29-11.55,50.12-50.22,50.12-50.22S661.26,176.86,627.97,188.42z" class="st1"/>
			<path d="M646.56,285.89c-38.4,0.93-68.71,35.47-68.71,35.47s31.95,33.04,70.35,32.11S716.91,318,716.91,318&#xA;&#9;&#9;&#9;&#9;S684.96,284.96,646.56,285.89z" class="st2"/>
			<path d="M543,122.65c-24.8,27.95-20.31,72.44-20.31,72.44s44.7-0.84,69.5-28.79s20.31-72.44,20.31-72.44&#xA;&#9;&#9;&#9;&#9;S567.8,94.7,543,122.65z" class="st2"/>
		</g>
		<path d="M548.97,503.36c-39.79-13.14-79.68-16.21-119.65-16.6c-39.96,0.46-79.83,3.55-119.61,16.6H548.97z" class="st0"/>
	</g>
</g>
</svg>